<svg width="150" height="33" viewBox="0 0 150 33" fill="none" xmlns="http://www.w3.org/2000/svg">
<path fill-rule="evenodd" clip-rule="evenodd" d="M7.5 6.5C7.5 5.11929 8.61929 4 10 4H13.75C15.1307 4 16.25 5.11929 16.25 6.5V26.5C16.25 27.8807 15.1307 29 13.75 29H10C8.61929 29 7.5 27.8807 7.5 26.5V6.5ZM13.75 6.5H10V26.5H13.75V6.5Z" fill="#007AB3"/>
<path fill-rule="evenodd" clip-rule="evenodd" d="M23.75 6.5C23.75 5.11929 24.8693 4 26.25 4H30C31.3807 4 32.5 5.11929 32.5 6.5V26.5C32.5 27.8807 31.3807 29 30 29H26.25C24.8693 29 23.75 27.8807 23.75 26.5V6.5ZM30 6.5H26.25V26.5H30V6.5Z" fill="#007AB3"/>
<path fill-rule="evenodd" clip-rule="evenodd" d="M30 9C30 8.3096 30.5596 7.75 31.25 7.75H35C35.663 7.75 36.2989 8.0134 36.7678 8.4822C37.2366 8.9511 37.5 9.587 37.5 10.25V22.75C37.5 23.413 37.2366 24.0489 36.7678 24.5178C36.2989 24.9866 35.663 25.25 35 25.25H31.25C30.5596 25.25 30 24.6904 30 24C30 23.3096 30.5596 22.75 31.25 22.75H35V10.25H31.25C30.5596 10.25 30 9.6904 30 9Z" fill="#007AB3"/>
<path fill-rule="evenodd" clip-rule="evenodd" d="M3.23223 8.4822C3.70107 8.0134 4.33696 7.75 5 7.75H8.75C9.44036 7.75 10 8.3096 10 9C10 9.6904 9.44036 10.25 8.75 10.25H5V22.75H8.75C9.44036 22.75 10 23.3096 10 24C10 24.6904 9.44036 25.25 8.75 25.25H5C4.33696 25.25 3.70108 24.9866 3.23223 24.5178C2.76339 24.0489 2.5 23.413 2.5 22.75V10.25C2.5 9.587 2.76339 8.9511 3.23223 8.4822Z" fill="#007AB3"/>
<path fill-rule="evenodd" clip-rule="evenodd" d="M13.75 16.5C13.75 15.8096 14.3096 15.25 15 15.25H25C25.6904 15.25 26.25 15.8096 26.25 16.5C26.25 17.1904 25.6904 17.75 25 17.75H15C14.3096 17.75 13.75 17.1904 13.75 16.5Z" fill="#007AB3"/>
<path fill-rule="evenodd" clip-rule="evenodd" d="M35 16.5C35 15.8096 35.5596 15.25 36.25 15.25H38.75C39.4404 15.25 40 15.8096 40 16.5C40 17.1904 39.4404 17.75 38.75 17.75H36.25C35.5596 17.75 35 17.1904 35 16.5Z" fill="#007AB3"/>
<path fill-rule="evenodd" clip-rule="evenodd" d="M0 16.5C0 15.8096 0.559644 15.25 1.25 15.25H3.75C4.44036 15.25 5 15.8096 5 16.5C5 17.1904 4.44036 17.75 3.75 17.75H1.25C0.559644 17.75 0 17.1904 0 16.5Z" fill="#007AB3"/>
<path d="M68.5742 22.8008V26H58.5527V22.8008H68.5742ZM59.8789 6.09375V26H55.7773V6.09375H59.8789ZM79.1016 22.459V11.207H83.0391V26H79.334L79.1016 22.459ZM79.5391 19.4238L80.7012 19.3965C80.7012 20.3809 80.5872 21.2969 80.3594 22.1445C80.1315 22.9831 79.7897 23.7122 79.334 24.332C78.8783 24.9427 78.304 25.4212 77.6113 25.7676C76.9186 26.1048 76.1029 26.2734 75.1641 26.2734C74.444 26.2734 73.7786 26.1732 73.168 25.9727C72.5664 25.763 72.0469 25.4395 71.6094 25.002C71.181 24.5553 70.8438 23.9857 70.5977 23.293C70.3607 22.5911 70.2422 21.748 70.2422 20.7637V11.207H74.1797V20.791C74.1797 21.2285 74.2298 21.5977 74.3301 21.8984C74.4395 22.1992 74.5898 22.4453 74.7812 22.6367C74.9727 22.8281 75.196 22.9648 75.4512 23.0469C75.7155 23.1289 76.0072 23.1699 76.3262 23.1699C77.1374 23.1699 77.7754 23.0059 78.2402 22.6777C78.7142 22.3496 79.0469 21.903 79.2383 21.3379C79.4388 20.7637 79.5391 20.1257 79.5391 19.4238ZM90.2031 11.207V26H86.252V11.207H90.2031ZM86.0059 7.35156C86.0059 6.77734 86.2064 6.30339 86.6074 5.92969C87.0085 5.55599 87.5462 5.36914 88.2207 5.36914C88.8861 5.36914 89.4193 5.55599 89.8203 5.92969C90.2305 6.30339 90.4355 6.77734 90.4355 7.35156C90.4355 7.92578 90.2305 8.39974 89.8203 8.77344C89.4193 9.14714 88.8861 9.33398 88.2207 9.33398C87.5462 9.33398 87.0085 9.14714 86.6074 8.77344C86.2064 8.39974 86.0059 7.92578 86.0059 7.35156ZM109.48 15.5957V23.4844C109.171 23.8581 108.692 24.2637 108.045 24.7012C107.398 25.1296 106.564 25.4987 105.543 25.8086C104.522 26.1185 103.287 26.2734 101.838 26.2734C100.553 26.2734 99.3815 26.0638 98.3242 25.6445C97.2669 25.2161 96.3555 24.5918 95.5898 23.7715C94.8333 22.9512 94.25 21.9486 93.8398 20.7637C93.4297 19.5697 93.2246 18.207 93.2246 16.6758V15.4316C93.2246 13.9004 93.4206 12.5378 93.8125 11.3438C94.2135 10.1497 94.7832 9.14258 95.5215 8.32227C96.2598 7.50195 97.1393 6.8776 98.1602 6.44922C99.181 6.02083 100.316 5.80664 101.564 5.80664C103.296 5.80664 104.718 6.08919 105.83 6.6543C106.942 7.21029 107.79 7.98503 108.373 8.97852C108.965 9.96289 109.33 11.0931 109.467 12.3691H105.488C105.388 11.6947 105.197 11.1068 104.914 10.6055C104.632 10.1042 104.226 9.71224 103.697 9.42969C103.178 9.14714 102.503 9.00586 101.674 9.00586C100.99 9.00586 100.38 9.14714 99.8418 9.42969C99.3132 9.70312 98.8665 10.1087 98.502 10.6465C98.1374 11.1842 97.8594 11.8496 97.668 12.6426C97.4766 13.4355 97.3809 14.3561 97.3809 15.4043V16.6758C97.3809 17.7148 97.4811 18.6354 97.6816 19.4375C97.8822 20.2305 98.1784 20.9004 98.5703 21.4473C98.9714 21.985 99.4635 22.3906 100.047 22.6641C100.63 22.9375 101.309 23.0742 102.084 23.0742C102.731 23.0742 103.269 23.0195 103.697 22.9102C104.135 22.8008 104.486 22.6686 104.75 22.5137C105.023 22.3496 105.233 22.1947 105.379 22.0488V18.5215H101.633V15.5957H109.48ZM116.932 24.332L120.855 11.207H125.08L119.133 28.2285C119.005 28.6022 118.832 29.0033 118.613 29.4316C118.404 29.86 118.117 30.2656 117.752 30.6484C117.396 31.0404 116.945 31.3594 116.398 31.6055C115.861 31.8516 115.2 31.9746 114.416 31.9746C114.042 31.9746 113.737 31.9518 113.5 31.9062C113.263 31.8607 112.98 31.7969 112.652 31.7148V28.8301C112.753 28.8301 112.857 28.8301 112.967 28.8301C113.076 28.8392 113.181 28.8438 113.281 28.8438C113.801 28.8438 114.225 28.7845 114.553 28.666C114.881 28.5475 115.145 28.3652 115.346 28.1191C115.546 27.8822 115.706 27.5723 115.824 27.1895L116.932 24.332ZM115.291 11.207L118.504 21.9258L119.064 26.0957L116.385 26.3828L111.066 11.207H115.291ZM130.59 14.2695V26H126.639V11.207H130.344L130.59 14.2695ZM130.043 18.084H128.949C128.949 17.054 129.072 16.1061 129.318 15.2402C129.574 14.3652 129.943 13.6087 130.426 12.9707C130.918 12.3236 131.524 11.8223 132.244 11.4668C132.964 11.1113 133.798 10.9336 134.746 10.9336C135.402 10.9336 136.004 11.0339 136.551 11.2344C137.098 11.4258 137.567 11.7311 137.959 12.1504C138.36 12.5605 138.67 13.0983 138.889 13.7637C139.107 14.4199 139.217 15.2083 139.217 16.1289V26H135.279V16.5664C135.279 15.8919 135.188 15.3724 135.006 15.0078C134.824 14.6432 134.564 14.388 134.227 14.2422C133.898 14.0964 133.502 14.0234 133.037 14.0234C132.527 14.0234 132.08 14.1283 131.697 14.3379C131.324 14.5475 131.014 14.8392 130.768 15.2129C130.521 15.5775 130.339 16.0059 130.221 16.498C130.102 16.9902 130.043 17.5189 130.043 18.084ZM138.848 17.6328L137.439 17.8105C137.439 16.8444 137.558 15.9466 137.795 15.1172C138.041 14.2878 138.401 13.5586 138.875 12.9297C139.358 12.3008 139.955 11.8132 140.666 11.4668C141.377 11.1113 142.197 10.9336 143.127 10.9336C143.838 10.9336 144.485 11.0384 145.068 11.248C145.652 11.4486 146.148 11.7721 146.559 12.2188C146.978 12.6562 147.297 13.2305 147.516 13.9414C147.743 14.6523 147.857 15.5228 147.857 16.5527V26H143.906V16.5527C143.906 15.8691 143.815 15.3496 143.633 14.9941C143.46 14.6296 143.204 14.3789 142.867 14.2422C142.539 14.0964 142.147 14.0234 141.691 14.0234C141.217 14.0234 140.803 14.1191 140.447 14.3105C140.092 14.4928 139.796 14.748 139.559 15.0762C139.322 15.4043 139.144 15.7871 139.025 16.2246C138.907 16.653 138.848 17.1224 138.848 17.6328Z" fill="white"/>
</svg>
